<svg width="377" height="78" viewBox="0 0 377 78" fill="none" xmlns="http://www.w3.org/2000/svg">
<path d="M52.9266 13.1733L51.7888 16H49.3532L54.651 3.55556H56.9977L62.3132 16H59.8243L58.6866 13.1733H52.9266ZM55.8243 6.02667L53.691 11.2533H57.9221L55.8243 6.02667ZM65.5898 3.55556V16H63.2075V3.55556H65.5898ZM84.5361 8.16H82.9183V13.0667H80.6783V2.95111H82.9183V5.86667H84.5361V8.16ZM79.9672 10.4889C79.6116 10.643 79.102 10.7733 78.4383 10.88C77.7746 10.9748 77.0872 11.0222 76.3761 11.0222H70.8827V9.06667H72.1983V5.12H70.9539V3.16444H79.5227V5.12H78.2783V8.96C78.8946 8.91259 79.4576 8.78222 79.9672 8.56889V10.4889ZM76.1272 9.06667V5.12H74.3494V9.06667H75.2561H76.1272ZM83.1672 14.4356V16.5511H71.6294V11.9467H73.9227V14.4356H83.1672ZM97.7253 16.6044H95.6275V10.3467H94.2231V16.3733H92.1431V3.00444H94.2231V8.10667H95.6275V2.95111H97.7253V16.6044ZM91.0231 3.32444V15.9111H85.2275V3.32444H91.0231ZM88.9253 13.7778V5.45778H87.3253V13.7778H88.9253ZM115.621 16.0711H102.537V13.8844H107.941V11.3067H103.284V3.32444H114.857V5.51111H105.577V9.12H114.999V11.3067H110.217V13.8844H115.621V16.0711ZM123.157 10.4889C121.972 10.4889 120.935 10.3348 120.046 10.0267C119.157 9.71852 118.464 9.28 117.966 8.71111C117.48 8.14222 117.237 7.47852 117.237 6.72C117.237 5.96148 117.48 5.29778 117.966 4.72889C118.464 4.16 119.157 3.72148 120.046 3.41333C120.935 3.10518 121.972 2.95111 123.157 2.95111C124.342 2.95111 125.379 3.10518 126.268 3.41333C127.157 3.72148 127.845 4.16 128.331 4.72889C128.828 5.29778 129.077 5.96148 129.077 6.72C129.077 7.47852 128.828 8.14222 128.331 8.71111C127.845 9.28 127.157 9.71852 126.268 10.0267C125.379 10.3348 124.342 10.4889 123.157 10.4889ZM123.157 5.06667C122.102 5.06667 121.243 5.21481 120.579 5.51111C119.928 5.79556 119.602 6.19852 119.602 6.72C119.602 7.24148 119.928 7.65037 120.579 7.94667C121.243 8.23111 122.102 8.37333 123.157 8.37333C124.2 8.37333 125.048 8.23111 125.699 7.94667C126.363 7.65037 126.695 7.24148 126.695 6.72C126.695 6.19852 126.369 5.79556 125.717 5.51111C125.065 5.21481 124.212 5.06667 123.157 5.06667ZM124.313 13.6356V16.9244H122.002V13.6356H116.615V11.4489H129.699V13.6356H124.313ZM140.862 16.6044V2.95111H143.12V16.6044H140.862ZM131.315 15.9111V3.32444H138.924V15.9111H131.315ZM136.666 5.52889H133.555V13.7067H136.666V5.52889ZM161.371 11.36H148.287V9.45778H153.709V8.42667H149.122V3.00444H160.536V8.42667H155.949V9.45778H161.371V11.36ZM158.314 6.59556V4.83556H151.327V6.59556H158.314ZM156.287 12.1956C156.192 12.5867 156.079 12.9185 155.949 13.1911L161.105 14.7022L160.411 16.6933L154.705 14.7733C154.017 15.3659 153.158 15.8104 152.127 16.1067C151.108 16.403 150.023 16.5511 148.874 16.5511V14.5244C150.165 14.5244 151.297 14.2933 152.269 13.8311C153.253 13.357 153.845 12.6874 154.047 11.8222L156.287 12.1956ZM176.036 7.80444H174.418V13.0667H172.178V2.95111H174.418V5.52889H176.036V7.80444ZM171.467 10.1333C171.112 10.2874 170.626 10.4119 170.009 10.5067C169.393 10.6015 168.735 10.6489 168.036 10.6489H162.703V3.07555H164.996V8.62222H168.143C168.83 8.62222 169.464 8.58074 170.045 8.49778C170.638 8.40296 171.112 8.27259 171.467 8.10667V10.1333ZM174.667 14.4356V16.5511H163.129V11.7156H165.423V14.4356H174.667ZM186.612 16.6044V2.95111H188.87V16.6044H186.612ZM180.923 3.16444C182.168 3.16444 183.145 3.7037 183.856 4.78222C184.579 5.84889 184.941 7.46074 184.941 9.61778C184.941 11.7748 184.579 13.3926 183.856 14.4711C183.145 15.5378 182.168 16.0711 180.923 16.0711C179.667 16.0711 178.677 15.5378 177.954 14.4711C177.243 13.3926 176.888 11.7748 176.888 9.61778C176.888 7.46074 177.243 5.84889 177.954 4.78222C178.677 3.7037 179.667 3.16444 180.923 3.16444ZM180.923 5.31556C180.366 5.31556 179.922 5.65926 179.59 6.34667C179.27 7.02222 179.11 8.11259 179.11 9.61778C179.11 11.1348 179.27 12.2311 179.59 12.9067C179.922 13.5822 180.366 13.92 180.923 13.92C181.468 13.92 181.907 13.5822 182.239 12.9067C182.57 12.2193 182.736 11.123 182.736 9.61778C182.736 8.12444 182.57 7.03407 182.239 6.34667C181.907 5.65926 181.468 5.31556 180.923 5.31556ZM207.121 10.72H194.037V8.88889H199.459V7.89333H194.872V2.88H197.112V6.06222H206.428V7.89333H201.699V8.88889H207.121V10.72ZM200.579 11.4489C202.392 11.4489 203.826 11.6622 204.881 12.0889C205.936 12.5037 206.464 13.1733 206.464 14.0978C206.464 15.0222 205.936 15.6919 204.881 16.1067C203.826 16.5333 202.392 16.7467 200.579 16.7467C198.766 16.7467 197.332 16.5333 196.277 16.1067C195.222 15.6919 194.695 15.0222 194.695 14.0978C194.695 13.1733 195.222 12.5037 196.277 12.0889C197.332 11.6622 198.766 11.4489 200.579 11.4489ZM200.579 14.9689C201.634 14.9689 202.481 14.9037 203.121 14.7733C203.761 14.6311 204.081 14.4059 204.081 14.0978C204.081 13.8015 203.755 13.5822 203.104 13.44C202.464 13.2978 201.622 13.2267 200.579 13.2267C199.536 13.2267 198.689 13.2978 198.037 13.44C197.397 13.5822 197.077 13.8015 197.077 14.0978C197.077 14.4059 197.397 14.6311 198.037 14.7733C198.677 14.9037 199.524 14.9689 200.579 14.9689ZM220.168 7.73333V11.0756H217.928V2.95111H220.168V5.47556H221.786V7.73333H220.168ZM212.613 8.35556C212.115 9.07852 211.493 9.65926 210.746 10.0978C209.999 10.5363 209.176 10.7793 208.275 10.8267V8.69333C209.176 8.59852 209.911 8.22518 210.479 7.57333C211.06 6.90963 211.404 6.10963 211.511 5.17333H208.453V3.16444H216.737V5.17333H213.786C213.751 5.6237 213.668 6.07407 213.537 6.52444L217.164 8.97778L216.008 10.72L212.613 8.35556ZM220.168 11.6444V16.7111H217.893V13.6711H208.808V11.6444H220.168ZM223.029 7.69778V3.00444H234.442V7.69778H223.029ZM225.233 4.71111V5.99111H232.22V4.71111H225.233ZM229.855 10.8978H234.478V14.3644H225.215V15.0222H234.638V16.5511H223.011V13.0667H232.273V12.4089H222.975V10.8978H227.615V10.0978H222.193V8.37333H235.278V10.0978H229.855V10.8978ZM252.214 11.0756H249.956V2.95111H252.214V11.0756ZM244.48 8.35556C243.971 9.06667 243.336 9.64741 242.578 10.0978C241.819 10.5363 240.984 10.7793 240.071 10.8267V8.69333C240.996 8.59852 241.748 8.22518 242.329 7.57333C242.922 6.90963 243.271 6.10963 243.378 5.17333H240.267V3.16444H248.658V5.17333H245.671C245.648 5.54074 245.559 5.99111 245.405 6.52444L249.12 8.97778L247.947 10.72L244.48 8.35556ZM252.214 11.6444V16.7111H249.938V13.6711H240.711V11.6444H252.214ZM266.363 16.6044H264.123V10.3467H261.172C260.698 12.1007 259.868 13.4637 258.683 14.4356C257.498 15.4074 256.052 15.8933 254.345 15.8933V13.6533C255.945 13.6533 257.172 13.0607 258.025 11.8756C258.878 10.6785 259.305 9.02518 259.305 6.91556V5.47556H254.345V3.32444H261.598V6.89778C261.598 7.18222 261.575 7.59704 261.527 8.14222H264.123V2.95111H266.363V16.6044ZM280.725 16.6044H278.628V10.3467H277.223V16.3733H275.143V3.00444H277.223V8.10667H278.628V2.95111H280.725V16.6044ZM271.196 13.9022C271.801 13.9022 272.388 13.8607 272.956 13.7778C273.537 13.683 274.029 13.5467 274.432 13.3689V15.3956C274.053 15.5615 273.567 15.6919 272.974 15.7867C272.382 15.8696 271.759 15.9111 271.108 15.9111H268.228V8.56889H271.659V5.33333H268.228V3.32444H273.756V10.56H270.325V13.9022H271.196ZM286.23 7.89333V6.24H288.31V4.65778H286.372V3.00444H297.786V4.65778H295.83V6.24H297.91V7.89333H286.23ZM293.626 6.24V4.65778H290.532V6.24H293.626ZM298.621 10.3467H285.537V8.62222H298.621V10.3467ZM297.981 15.0756V16.5511H286.355V13.1556H295.617V12.5156H286.319V11.0578H297.821V14.4356H288.559V15.0756H297.981ZM306.815 11.3067V3.00444H308.895V5.92H310.299V2.95111H312.397V12.5689H310.299V8.08889H308.895V11.3067H306.815ZM306.139 10.72C305.428 11.04 304.326 11.2 302.833 11.2H299.899V6.29333H303.526V5.04889H299.899V3.16444H305.606V8.05333H301.962V9.33333H302.957C304.32 9.33333 305.381 9.17926 306.139 8.87111V10.72ZM306.406 14.72C305.683 15.3244 304.806 15.7807 303.775 16.0889C302.744 16.397 301.659 16.5511 300.522 16.5511V14.4356C301.375 14.4237 302.187 14.3052 302.957 14.08C303.728 13.843 304.373 13.517 304.895 13.1022C305.428 12.6756 305.772 12.1778 305.926 11.6089L308.148 12.0889C308.089 12.3852 307.976 12.7052 307.811 13.0489L313.002 14.6844L312.255 16.7289L306.406 14.72ZM326.778 11.0933H313.693V9.29778H319.115V8.35556H314.386V6.57778H316.466V4.78222H314.529V3.00444H325.942V4.78222H323.986V6.57778H326.066V8.35556H321.355V9.29778H326.778V11.0933ZM321.764 6.57778V4.78222H318.706V6.57778H321.764ZM325.978 11.9111V16.5511H314.493V11.9111H325.978ZM323.738 14.7911V13.6889H316.715V14.7911H323.738Z" fill="black"/>
<path d="M75.6872 69.8889H66.6872V51.7222H62.0761C61.6687 57.3889 60.3724 61.6111 58.1872 64.3889C56.002 67.1667 53.0946 68.5556 49.465 68.5556C45.502 68.5556 42.3909 66.8704 40.1316 63.5C37.8724 60.0926 36.7427 54.9444 36.7427 48.0556C36.7427 41.1667 37.8724 36.037 40.1316 32.6667C42.3909 29.2593 45.502 27.5556 49.465 27.5556C52.9094 27.5556 55.7242 28.8148 57.9094 31.3333C60.0946 33.8519 61.465 37.6852 62.0205 42.8333H66.6872V27.2222H75.6872V69.8889ZM49.465 59.8333C50.6501 59.8333 51.5761 58.963 52.2427 57.2222C52.9094 55.4444 53.2427 52.3889 53.2427 48.0556C53.2427 43.7593 52.9094 40.7222 52.2427 38.9444C51.5761 37.1667 50.6501 36.2778 49.465 36.2778C48.2798 36.2778 47.3353 37.1667 46.6316 38.9444C45.965 40.7222 45.6316 43.7593 45.6316 48.0556C45.6316 52.3519 45.965 55.3889 46.6316 57.1667C47.3353 58.9444 48.2798 59.8333 49.465 59.8333ZM109.626 39.6111V34.6667H81.9591V27.0556H118.792V39.6111H109.626ZM79.9035 48.1667V40.8889H121.07V48.1667H79.9035ZM91.0702 62.5V63.6111H119.181V70.0556H82.1813V56.9444H110.015V55.7222H82.0702V49.3889H118.904V62.5H91.0702ZM154.509 69.8889V27.2222H163.564V69.8889H154.509ZM134.564 52.2222V59.5556H142.398C144.287 59.5556 146.175 59.3704 148.064 59C149.99 58.5926 151.601 58.0926 152.898 57.5V66C151.675 66.6296 150.064 67.1296 148.064 67.5C146.101 67.8704 144.083 68.0556 142.009 68.0556H125.564V43.8333H140.287V36.6111H125.509V28.0556H149.231V52.2222H134.564ZM198.503 48.0556V27.2222H207.558V48.0556H198.503ZM178.058 35.2222V39.7222H188.558C190.188 39.7222 191.744 39.6111 193.225 39.3889C194.744 39.1296 195.984 38.7778 196.947 38.3333V46.0556C195.984 46.463 194.744 46.7963 193.225 47.0556C191.707 47.3148 190.151 47.4444 188.558 47.4444H169.058V27.5556H194.781V35.2222H178.058ZM179.67 62.5556V63.5556H207.836V70.0556H170.725V56.8333H198.614V55.8333H170.67V49.3333H207.558V62.5556H179.67ZM242.497 69.8889V27.2222H251.553V69.8889H242.497ZM222.553 52.2222V59.5556H230.386C232.275 59.5556 234.164 59.3704 236.053 59C237.979 58.5926 239.59 58.0926 240.886 57.5V66C239.664 66.6296 238.053 67.1296 236.053 67.5C234.09 67.8704 232.071 68.0556 229.997 68.0556H213.553V43.8333H228.275V36.6111H213.497V28.0556H237.219V52.2222H222.553ZM295.658 69.8889H286.713V54.3889H280.825V45.5556H286.713V42H280.825V33.2222H286.713V27.2222H295.658V69.8889ZM274.825 28.2778C274.825 33.7593 274.454 38.8704 273.713 43.6111L285.213 62.8889L277.38 67.9444L270.547 55.4444C268.843 59.5556 266.713 62.7037 264.158 64.8889C261.602 67.0741 258.806 68.1296 255.769 68.0556V58.1111C257.658 57.9259 259.343 56.5741 260.825 54.0556C262.343 51.5 263.51 47.9815 264.325 43.5C265.176 38.9815 265.602 33.8148 265.602 28L274.825 28.2778ZM320.319 44.0556C317.911 47.3519 315.004 49.9259 311.596 51.7778C308.226 53.5926 304.596 54.5185 300.708 54.5556V45.5556C303.337 45.5185 305.837 44.7407 308.208 43.2222C310.578 41.6667 312.559 39.4815 314.152 36.6667C315.745 33.8519 316.745 30.6111 317.152 26.9444L326.319 28.3889C325.948 31.5741 325.282 34.3148 324.319 36.6111L341.43 47.1111L336.652 54.8333L320.319 44.0556ZM341.041 59.6667V68.5556H299.874V59.6667H341.041Z" fill="#30DB5B"/>
</svg>
