<svg width="326" height="118" viewBox="0 0 326 118" fill="none" xmlns="http://www.w3.org/2000/svg">
<path d="M41.1667 50.8889H32.1667V32.7222H27.5556C27.1481 38.3889 25.8519 42.6111 23.6667 45.3889C21.4815 48.1667 18.5741 49.5556 14.9444 49.5556C10.9815 49.5556 7.87037 47.8704 5.61111 44.5C3.35185 41.0926 2.22222 35.9444 2.22222 29.0556C2.22222 22.1667 3.35185 17.037 5.61111 13.6667C7.87037 10.2593 10.9815 8.55555 14.9444 8.55555C18.3889 8.55555 21.2037 9.81481 23.3889 12.3333C25.5741 14.8519 26.9444 18.6852 27.5 23.8333H32.1667V8.22222H41.1667V50.8889ZM14.9444 40.8333C16.1296 40.8333 17.0556 39.963 17.7222 38.2222C18.3889 36.4444 18.7222 33.3889 18.7222 29.0556C18.7222 24.7593 18.3889 21.7222 17.7222 19.9444C17.0556 18.1667 16.1296 17.2778 14.9444 17.2778C13.7593 17.2778 12.8148 18.1667 12.1111 19.9444C11.4444 21.7222 11.1111 24.7593 11.1111 29.0556C11.1111 33.3519 11.4444 36.3889 12.1111 38.1667C12.8148 39.9444 13.7593 40.8333 14.9444 40.8333ZM75.1053 20.6111V15.6667H47.4386V8.05555H84.2719V20.6111H75.1053ZM45.383 29.1667V21.8889H86.5497V29.1667H45.383ZM56.5497 43.5V44.6111H84.6608V51.0556H47.6608V37.9444H75.4941V36.7222H47.5497V30.3889H84.383V43.5H56.5497ZM119.988 50.8889V8.22222H129.044V50.8889H119.988ZM100.044 33.2222V40.5556H107.877C109.766 40.5556 111.655 40.3704 113.544 40C115.47 39.5926 117.081 39.0926 118.377 38.5V47C117.155 47.6296 115.544 48.1296 113.544 48.5C111.581 48.8704 109.562 49.0556 107.488 49.0556H91.0438V24.8333H105.766V17.6111H90.9883V9.05555H114.711V33.2222H100.044ZM170.747 49V54.6111H142.969V49H170.747ZM198.53 49V54.6111H170.752V49H198.53ZM226.313 49V54.6111H198.535V49H226.313ZM254.096 49V54.6111H226.318V49H254.096ZM281.879 49V54.6111H254.102V49H281.879ZM309.663 49V54.6111H281.885V49H309.663ZM27.7778 108V113.611H0V108H27.7778ZM55.561 108V113.611H27.7832V108H55.561ZM83.3442 108V113.611H55.5664V108H83.3442ZM111.127 108V113.611H83.3496V108H111.127ZM138.911 108V113.611H111.133V108H138.911ZM181.902 88.0556V67.2222H190.958V88.0556H181.902ZM161.458 75.2222V79.7222H171.958C173.588 79.7222 175.143 79.6111 176.625 79.3889C178.143 79.1296 179.384 78.7778 180.347 78.3333V86.0556C179.384 86.463 178.143 86.7963 176.625 87.0556C175.106 87.3148 173.55 87.4444 171.958 87.4444H152.458V67.5556H178.18V75.2222H161.458ZM163.069 102.556V103.556H191.236V110.056H154.125V96.8333H182.013V95.8333H154.069V89.3333H190.958V102.556H163.069ZM225.896 109.889V67.2222H234.952V109.889H225.896ZM205.952 92.2222V99.5556H213.785C215.674 99.5556 217.563 99.3704 219.452 99C221.378 98.5926 222.989 98.0926 224.285 97.5V106C223.063 106.63 221.452 107.13 219.452 107.5C217.489 107.87 215.471 108.056 213.396 108.056H196.952V83.8333H211.674V76.6111H196.896V68.0556H220.619V92.2222H205.952ZM279.057 109.889H270.113V94.3889H264.224V85.5556H270.113V82H264.224V73.2222H270.113V67.2222H279.057V109.889ZM258.224 68.2778C258.224 73.7593 257.854 78.8704 257.113 83.6111L268.613 102.889L260.78 107.944L253.946 95.4444C252.242 99.5556 250.113 102.704 247.557 104.889C245.002 107.074 242.205 108.13 239.168 108.056V98.1111C241.057 97.9259 242.742 96.5741 244.224 94.0556C245.742 91.5 246.909 87.9815 247.724 83.5C248.576 78.9815 249.002 73.8148 249.002 68L258.224 68.2778ZM303.718 84.0556C301.311 87.3519 298.403 89.9259 294.996 91.7778C291.626 93.5926 287.996 94.5185 284.107 94.5556V85.5556C286.737 85.5185 289.237 84.7407 291.607 83.2222C293.977 81.6667 295.959 79.4815 297.551 76.6667C299.144 73.8519 300.144 70.6111 300.551 66.9444L309.718 68.3889C309.348 71.5741 308.681 74.3148 307.718 76.6111L324.829 87.1111L320.051 94.8333L303.718 84.0556ZM324.44 99.6667V108.556H283.274V99.6667H324.44Z" fill="white"/>
<path d="M182.467 28.3H157.933V24.7333H168.1V22.8H159.5V12.6333H180.9V22.8H172.3V24.7333H182.467V28.3ZM176.733 19.3667V16.0667H163.633V19.3667H176.733ZM172.933 29.8667C172.756 30.6 172.544 31.2222 172.3 31.7333L181.967 34.5667L180.667 38.3L169.967 34.7C168.678 35.8111 167.067 36.6444 165.133 37.2C163.222 37.7556 161.189 38.0333 159.033 38.0333V34.2333C161.456 34.2333 163.578 33.8 165.4 32.9333C167.244 32.0444 168.356 30.7889 168.733 29.1667L172.933 29.8667ZM197.663 26.6V12.6333H201.596V16.7667H204.363V12.5333H208.296V27.4333H204.363V20.8333H201.596V26.6H197.663ZM191.03 22.0667C190.274 23.5111 189.319 24.6556 188.163 25.5C187.008 26.3444 185.708 26.8222 184.263 26.9333V22.9667C185.73 22.6556 186.885 21.6 187.73 19.8C188.574 18 188.996 15.6556 188.996 12.7667L192.996 12.9C192.996 14.6333 192.83 16.3667 192.496 18.1L197.863 23.4L195.196 26.2333L191.03 22.0667ZM197.296 27.6333C200.696 27.6333 203.419 28.0667 205.463 28.9333C207.53 29.7778 208.563 31.1333 208.563 33C208.563 34.8444 207.53 36.1889 205.463 37.0333C203.419 37.9 200.696 38.3333 197.296 38.3333C193.919 38.3333 191.196 37.9 189.13 37.0333C187.085 36.1889 186.063 34.8444 186.063 33C186.063 31.1333 187.085 29.7778 189.13 28.9333C191.196 28.0667 193.919 27.6333 197.296 27.6333ZM197.296 34.8333C199.296 34.8333 200.93 34.6889 202.196 34.4C203.463 34.1111 204.096 33.6444 204.096 33C204.096 32.3556 203.463 31.8889 202.196 31.6C200.952 31.3111 199.319 31.1667 197.296 31.1667C195.296 31.1667 193.674 31.3111 192.43 31.6C191.185 31.8889 190.563 32.3556 190.563 33C190.563 33.6444 191.185 34.1111 192.43 34.4C193.696 34.6889 195.319 34.8333 197.296 34.8333ZM225.793 24.5667V20.7667H229.993V18.5667H226.726V14.7667H229.993V12.5333H234.16V26.7333H229.993V24.5667H225.793ZM225.593 16.2667C225.593 19.6889 224.315 22.2222 221.76 23.8667C219.226 25.5111 215.76 26.3333 211.36 26.3333V22.6C214.404 22.5556 216.815 22.0556 218.593 21.1C220.393 20.1444 221.293 18.8333 221.293 17.1667V16.6333H211.36V12.9333H225.593V16.2667ZM229.36 34.6333C228.537 35.6778 227.56 36.4889 226.426 37.0667C225.293 37.6667 224.104 37.9889 222.86 38.0333L218.96 34.7C218.137 35.7222 217.16 36.5222 216.026 37.1C214.915 37.6778 213.76 37.9889 212.56 38.0333V34.0333C213.36 34.0111 214.115 33.7111 214.826 33.1333C215.56 32.5333 216.16 31.7444 216.626 30.7667C217.115 29.7667 217.404 28.6778 217.493 27.5L221.593 28.2C221.482 29.1778 221.226 30.2667 220.826 31.4667L223.86 33.8333C224.86 33.5 225.726 32.7444 226.46 31.5667C227.215 30.3889 227.671 29.0333 227.826 27.5L231.86 28.2C231.771 29.2 231.537 30.2667 231.16 31.4L236.093 35.1L233.66 38.2333L229.36 34.6333ZM260.556 38.1333H256.356V26.6333H252.689C252.512 30.1444 251.767 32.7778 250.456 34.5333C249.167 36.2667 247.445 37.1333 245.289 37.1333C242.978 37.1333 241.156 36.1333 239.823 34.1333C238.489 32.1111 237.823 29.0778 237.823 25.0333C237.823 20.9889 238.489 17.9667 239.823 15.9667C241.156 13.9444 242.978 12.9333 245.289 12.9333C247.334 12.9333 249.001 13.7333 250.289 15.3333C251.578 16.9111 252.367 19.3 252.656 22.5H256.356V12.5333H260.556V38.1333ZM245.289 33.1C246.289 33.1 247.078 32.4667 247.656 31.2C248.256 29.9333 248.556 27.8778 248.556 25.0333C248.556 22.2111 248.256 20.1667 247.656 18.9C247.078 17.6111 246.289 16.9667 245.289 16.9667C244.267 16.9667 243.456 17.6111 242.856 18.9C242.278 20.1667 241.989 22.2111 241.989 25.0333C241.989 30.4111 243.089 33.1 245.289 33.1ZM288.053 37.1333H263.519V33.0333H273.653V28.2H264.919V13.2333H286.619V17.3333H269.219V24.1H286.886V28.2H277.919V33.0333H288.053V37.1333ZM293.182 31.4667C294.005 31.4667 294.682 31.7333 295.216 32.2667C295.749 32.8 296.016 33.4889 296.016 34.3333C296.016 34.7556 295.96 35.1667 295.849 35.5667C295.76 35.9667 295.56 36.5444 295.249 37.3L293.449 42.0667H290.582L291.949 36.8667C291.438 36.6889 291.038 36.3778 290.749 35.9333C290.46 35.4667 290.316 34.9333 290.316 34.3333C290.316 33.4889 290.582 32.8 291.116 32.2667C291.671 31.7333 292.36 31.4667 293.182 31.4667Z" fill="#F6E24B"/>
<path d="M39.5667 80.8667H36.5333V89.0333H32.3333V71.5333H36.5333V76.6H39.5667V80.8667ZM14.5667 85.6667V71.9333H29.2333V85.6667H14.5667ZM18.7667 75.6667V81.9667H25.0667V75.6667H18.7667ZM28.9667 87.5667C28.7667 88.4111 28.4889 89.1778 28.1333 89.8667L37.6667 93.4333L36.1333 97.3667L25.7667 93.0667C24.4111 94.3556 22.8 95.3333 20.9333 96C19.0889 96.6889 17.1667 97.0333 15.1667 97.0333V92.9C16.6778 92.8778 18.1 92.6222 19.4333 92.1333C20.7889 91.6444 21.9333 90.9444 22.8667 90.0333C23.8222 89.1 24.4556 88.0111 24.7667 86.7667L28.9667 87.5667ZM59.3965 85.7333V71.5333H63.6298V85.7333H59.3965ZM56.0965 78.4667C56.0965 79.8222 55.7743 81.0222 55.1298 82.0667C54.4854 83.0889 53.5743 83.8889 52.3965 84.4667C51.2187 85.0222 49.852 85.3 48.2965 85.3C46.7409 85.3 45.3632 85.0222 44.1632 84.4667C42.9854 83.8889 42.0743 83.0889 41.4298 82.0667C40.7854 81.0222 40.4632 79.8222 40.4632 78.4667C40.4632 77.1111 40.7854 75.9222 41.4298 74.9C42.0743 73.8556 42.9854 73.0556 44.1632 72.5C45.3632 71.9222 46.7409 71.6333 48.2965 71.6333C49.852 71.6333 51.2187 71.9222 52.3965 72.5C53.5743 73.0556 54.4854 73.8556 55.1298 74.9C55.7743 75.9222 56.0965 77.1111 56.0965 78.4667ZM44.6632 78.4667C44.6632 79.4444 44.9965 80.2222 45.6632 80.8C46.3298 81.3556 47.2076 81.6333 48.2965 81.6333C49.3854 81.6333 50.2632 81.3556 50.9298 80.8C51.5965 80.2222 51.9298 79.4444 51.9298 78.4667C51.9298 77.4667 51.5965 76.6889 50.9298 76.1333C50.2632 75.5556 49.3854 75.2667 48.2965 75.2667C47.2076 75.2667 46.3298 75.5556 45.6632 76.1333C44.9965 76.6889 44.6632 77.4667 44.6632 78.4667ZM58.7632 93.6667C57.9409 94.7111 56.9743 95.5222 55.8632 96.1C54.7743 96.7 53.5965 97.0111 52.3298 97.0333L48.4965 93.7C47.652 94.7444 46.6854 95.5556 45.5965 96.1333C44.5298 96.7111 43.3965 97.0111 42.1965 97.0333V93.0333C42.9965 93.0111 43.7409 92.7111 44.4298 92.1333C45.1409 91.5333 45.7298 90.7444 46.1965 89.7667C46.6632 88.7667 46.952 87.6778 47.0632 86.5L51.1298 87.2C51.0409 88.1778 50.7965 89.2778 50.3965 90.5L53.3298 92.8333C54.3298 92.5 55.1965 91.7444 55.9298 90.5667C56.6632 89.3889 57.1076 88.0333 57.2632 86.5L61.2965 87.2C61.1632 88.3778 60.9298 89.4556 60.5965 90.4333L65.3965 94.1L63.0298 97.2667L58.7632 93.6667ZM92.3596 80.2333H89.3263V84.2333H85.1263V71.5333H89.3263V75.9333H92.3596V80.2333ZM75.1263 80.7333C74.193 81.9111 73.0263 82.8667 71.6263 83.6C70.2263 84.3111 68.693 84.7111 67.0263 84.8V80.9333C68.6485 80.7778 69.993 80.2 71.0596 79.2C72.1263 78.2 72.793 77 73.0596 75.6H67.3596V71.9333H82.893V75.6H77.3263C77.2596 76.2222 77.1374 76.8556 76.9596 77.5L83.4596 81.2333L81.493 84.5L75.1263 80.7333ZM90.393 86.7333V89.7333H77.393V86.7333H81.8596V85.0667H85.9596V86.7333H90.393ZM77.4596 93.5667V97.0333H68.1263V86.1667H72.2263V93.5667H77.4596ZM83.9263 90.4333C85.6596 90.4333 87.0485 90.7444 88.093 91.3667C89.1374 91.9667 89.6596 92.8444 89.6596 94C89.6596 95.1556 89.1374 96.0333 88.093 96.6333C87.0485 97.2333 85.6596 97.5333 83.9263 97.5333C82.193 97.5333 80.8041 97.2333 79.7596 96.6333C78.7152 96.0333 78.193 95.1556 78.193 94C78.193 92.8444 78.7152 91.9667 79.7596 91.3667C80.8041 90.7444 82.193 90.4333 83.9263 90.4333ZM83.9263 94.9C84.593 94.9 85.1263 94.8222 85.5263 94.6667C85.9263 94.5111 86.1263 94.2889 86.1263 94C86.1263 93.7111 85.9263 93.4889 85.5263 93.3333C85.1263 93.1556 84.593 93.0667 83.9263 93.0667C83.2596 93.0667 82.7263 93.1556 82.3263 93.3333C81.9263 93.4889 81.7263 93.7111 81.7263 94C81.7263 94.2889 81.9263 94.5111 82.3263 94.6667C82.7263 94.8222 83.2596 94.9 83.9263 94.9ZM115.723 85.4667V97.1333H111.523V71.5333H115.723V81.2H118.756V85.4667H115.723ZM101.156 71.9333C103.467 71.9333 105.278 72.9444 106.589 74.9667C107.923 76.9667 108.589 79.9889 108.589 84.0333C108.589 88.0778 107.923 91.1111 106.589 93.1333C105.278 95.1333 103.467 96.1333 101.156 96.1333C98.845 96.1333 97.0228 95.1333 95.6895 93.1333C94.3561 91.1111 93.6895 88.0778 93.6895 84.0333C93.6895 79.9889 94.3561 76.9667 95.6895 74.9667C97.0228 72.9444 98.845 71.9333 101.156 71.9333ZM101.156 92.1C102.156 92.1 102.945 91.4667 103.523 90.2C104.101 88.9333 104.389 86.8778 104.389 84.0333C104.389 81.2111 104.101 79.1667 103.523 77.9C102.945 76.6111 102.156 75.9667 101.156 75.9667C100.134 75.9667 99.3228 76.6111 98.7228 77.9C98.145 79.1667 97.8561 81.2111 97.8561 84.0333C97.8561 89.4111 98.9561 92.1 101.156 92.1ZM122.753 96.2333C121.953 96.2333 121.275 95.9667 120.719 95.4333C120.164 94.8778 119.886 94.1778 119.886 93.3333C119.886 92.4889 120.153 91.8 120.686 91.2667C121.241 90.7333 121.93 90.4667 122.753 90.4667C123.575 90.4667 124.253 90.7333 124.786 91.2667C125.341 91.8 125.619 92.4889 125.619 93.3333C125.619 94.1778 125.341 94.8778 124.786 95.4333C124.23 95.9667 123.553 96.2333 122.753 96.2333Z" fill="#F6E24B"/>
</svg>
